<svg width="100" height="100" viewBox="0 0 100 100" fill="none" xmlns="http://www.w3.org/2000/svg">
<g clip-path="url(#clip0_1054_10)">
<path d="M30.3378 20.8847C36.3151 20.7269 39.4008 18.189 40.0194 13.4918C40.6381 8.79453 37.2678 4.78202 32.5394 4.16769C24.2731 3.09372 17.5051 11.1635 13.3555 19.8716C20.8271 17.8593 24.6127 21.0358 30.3378 20.8847Z" fill="#005C96"/>
<path d="M16.571 38.6157C21.1803 34.8101 22.0264 30.9112 19.5812 26.8315C17.1361 22.7518 11.9766 21.668 7.86896 24.0965C0.687769 28.3419 0.39488 38.8647 2.56285 48.2773C7.19145 42.0911 12.156 42.2608 16.571 38.6157Z" fill="#005C96"/>
<path d="M52.1869 15.4346C56.9865 19.0007 61.0011 18.9102 64.4266 15.5986C67.8521 12.2869 67.7121 7.05107 64.3777 3.64888C58.5486 -2.29891 48.1768 -0.131773 39.4648 4.15385C46.6 7.18423 47.5897 12.019 52.1869 15.4346Z" fill="#005C96"/>
<path d="M49.4385 100C77.3633 100 100.001 77.5168 100.001 49.7821C100.001 36.8856 95.106 25.1245 87.0608 16.2314C93.5112 54.9637 53.786 47.1482 29.2223 54.7046C9.57128 60.7498 9.57971 76.4431 11.9564 83.5534C61.7274 102.932 83.7988 73.0417 88.6973 55.6546C87.2712 88.7819 50.4529 97.0306 32.2221 97.0141C37.5958 98.9463 43.3932 100 49.4385 100Z" fill="#8A9C3A"/>
<path d="M82.9511 12.7298C79.2566 10.3494 74.5099 8.7562 69.7676 7.82666C72.1066 11.9606 72.1816 15.2295 72.2545 18.4115C72.3002 20.4012 72.3451 22.357 72.9423 24.4691C74.563 30.2005 77.8029 32.5568 82.5505 32.0017C82.7368 31.9799 82.9206 31.9524 83.1016 31.9195C84.3574 28.2725 84.7298 23.41 83.6281 16.795L82.9511 12.7298Z" fill="#005C96"/>
<path d="M17.0302 56.9728C16.8354 53.5266 15.0351 51.2309 11.7575 49.9429C7.31242 48.1961 2.56079 50.468 0.801977 54.8828C-1.7003 61.1638 1.96627 67.9688 7.46366 73.593C7.70854 71.6017 8.19671 69.5404 9.00584 67.4883C10.5123 63.6677 13.0788 60.0154 17.0302 56.9728Z" fill="#005C96"/>
</g>
<defs>
<clipPath id="clip0_1054_10">
<rect width="100" height="100" fill="white"/>
</clipPath>
</defs>
</svg>
