<svg width="100" height="100" viewBox="0 0 100 100" fill="none" xmlns="http://www.w3.org/2000/svg">
<path fill-rule="evenodd" clip-rule="evenodd" d="M46.3766 25.0819C45.8163 24.5215 45.2559 23.9611 44.9757 23.1206C41.053 15.8356 32.3671 9.111 17.7971 12.1931C26.2029 15.2752 21.4396 27.0432 34.3284 31.8065C36.5699 32.6471 38.5313 34.048 40.2124 35.449L43.5747 38.5311C49.4587 44.1349 56.1833 41.6132 59.8258 37.6905L66.2702 30.6857C57.0239 37.4103 46.3766 25.0819 46.3766 25.0819Z" fill="url(#paint0_linear_20_96)"/>
<path fill-rule="evenodd" clip-rule="evenodd" d="M46.3762 25.0821C51.1395 29.5651 51.6999 29.5651 56.4631 24.8019L68.5113 11.9131C74.1152 16.9565 77.4775 19.4782 71.5934 25.6425L66.55 30.9661C57.0235 37.4105 46.3762 25.0821 46.3762 25.0821Z" fill="#084C7E"/>
<path fill-rule="evenodd" clip-rule="evenodd" d="M56.4634 14.7149C59.2653 11.6328 59.2653 6.86958 56.1832 4.06766C53.1011 1.26575 48.3378 1.26575 45.5359 4.34785C42.734 7.42996 42.734 12.1932 45.8161 14.9951C48.8982 17.797 53.6615 17.797 56.4634 14.7149Z" fill="#084C7E"/>
<path fill-rule="evenodd" clip-rule="evenodd" d="M43.0144 32.0867C41.3333 28.4443 38.8116 25.082 36.0096 22.28C32.3672 18.3574 28.4445 15.5555 22.2803 13.5941C30.686 17.2366 34.6087 21.1593 39.6521 27.8839L43.0144 32.0867Z" fill="white"/>
<path fill-rule="evenodd" clip-rule="evenodd" d="M53.6621 74.9559C54.2225 75.5163 54.7829 76.0767 55.0631 76.9173C58.9858 84.2022 67.6717 90.9268 82.2416 87.8447C73.8359 84.7626 78.5992 72.9946 65.7104 68.2313C63.4688 67.3907 61.5075 65.9898 59.8263 64.5888L56.464 61.5067C50.58 55.9029 43.8554 58.4246 40.213 62.3473L33.7686 69.3521C43.0149 62.6275 53.6621 74.9559 53.6621 74.9559Z" fill="url(#paint1_linear_20_96)"/>
<path fill-rule="evenodd" clip-rule="evenodd" d="M53.6618 74.9561C48.8985 70.473 48.3382 70.473 43.5749 75.2363L31.5267 88.1251C25.9228 83.0816 22.5606 80.5599 28.4446 74.3957L33.488 69.072C43.0145 62.6276 53.6618 74.9561 53.6618 74.9561Z" fill="url(#paint2_linear_20_96)"/>
<path fill-rule="evenodd" clip-rule="evenodd" d="M43.575 85.323C40.7731 88.4051 40.7731 93.1684 43.8552 95.9703C46.9373 98.7722 51.7005 98.7722 54.5024 95.6901C57.3044 92.608 57.3044 87.8447 54.2223 85.0428C51.1402 81.9607 46.3769 82.2409 43.575 85.323Z" fill="#084C7E"/>
<path fill-rule="evenodd" clip-rule="evenodd" d="M56.7439 67.6709C58.425 71.3134 60.9468 74.6757 63.7487 77.4776C67.3912 81.4003 71.3138 84.2022 77.4781 86.1635C69.0723 82.521 65.1496 78.5984 60.1062 71.8738L56.7439 67.6709Z" fill="white"/>
<path fill-rule="evenodd" clip-rule="evenodd" d="M74.9559 46.3766C75.5163 45.8163 76.0767 45.2559 76.9173 44.9757C84.2022 41.053 90.9268 32.3671 87.8447 17.7971C84.7626 26.2029 72.9946 21.4396 68.2313 34.3284C67.3907 36.5699 65.9898 38.5313 64.5888 40.2124L61.5067 43.5747C55.9029 49.4587 58.4246 56.1833 62.3473 59.8258L69.3521 66.2702C62.6275 57.0239 74.9559 46.3766 74.9559 46.3766Z" fill="url(#paint3_linear_20_96)"/>
<path fill-rule="evenodd" clip-rule="evenodd" d="M74.9562 46.3765C70.4731 51.1397 70.4731 51.7001 75.2364 56.4634L88.1252 68.5116C83.0817 74.1154 80.56 77.4777 74.3958 71.5937L69.0722 66.5502C62.6278 57.0237 74.9562 46.3765 74.9562 46.3765Z" fill="#084C7E"/>
<path fill-rule="evenodd" clip-rule="evenodd" d="M85.3227 56.4636C88.4048 59.2655 93.168 59.2655 95.9699 56.1834C98.7718 53.1013 98.7718 48.3381 95.6897 45.5362C92.6076 42.7343 87.8444 42.7343 85.0425 45.8164C81.9604 48.8985 82.2406 53.6617 85.3227 56.4636Z" fill="#084C7E"/>
<path fill-rule="evenodd" clip-rule="evenodd" d="M67.6714 43.0142C71.3139 41.333 74.6762 38.8113 77.4781 36.0094C81.4008 32.3669 84.2027 28.4442 86.164 22.28C82.5215 30.6858 78.5988 34.6084 71.8743 39.6519L67.6714 43.0142Z" fill="white"/>
<path fill-rule="evenodd" clip-rule="evenodd" d="M25.0821 53.6614C24.5218 54.2218 23.9614 54.7822 23.1208 55.0624C15.8358 58.985 9.11125 67.671 12.1933 82.2409C15.2755 73.8352 27.0435 78.5984 31.8067 65.7096C32.6473 63.4681 34.0483 61.5068 35.4492 59.8256L38.5313 56.4633C44.1352 50.5793 41.6134 43.8547 37.6908 40.2122L30.686 33.7678C37.4106 43.0141 25.0821 53.6614 25.0821 53.6614Z" fill="url(#paint4_linear_20_96)"/>
<path fill-rule="evenodd" clip-rule="evenodd" d="M25.0818 53.6613C29.5649 48.898 29.5649 48.3377 24.8016 43.5744L11.9128 31.5262C16.9563 25.9224 19.478 22.5601 25.6422 28.4441L30.9659 33.4875C37.4103 43.014 25.0818 53.6613 25.0818 53.6613Z" fill="#084C7E"/>
<path fill-rule="evenodd" clip-rule="evenodd" d="M14.7149 43.5746C11.6328 40.7727 6.86958 40.7727 4.06766 43.8548C1.26575 46.9369 1.26575 51.7002 4.34785 54.5021C7.42996 57.304 12.1932 57.304 14.9951 54.2219C17.797 51.1398 17.797 46.3765 14.7149 43.5746Z" fill="#084C7E"/>
<path fill-rule="evenodd" clip-rule="evenodd" d="M32.0866 56.7433C28.4441 58.7046 25.0818 60.9462 22.2799 63.7481C18.3572 67.3906 15.5553 71.3132 13.594 77.4774C17.2365 69.0717 21.1592 65.149 27.8838 60.1056L32.0866 56.7433Z" fill="white"/>
<defs>
<linearGradient id="paint0_linear_20_96" x1="18.0358" y1="27.0775" x2="66.5396" y2="26.0387" gradientUnits="userSpaceOnUse">
<stop stop-color="#68ACA2"/>
<stop offset="1" stop-color="#4A9287"/>
</linearGradient>
<linearGradient id="paint1_linear_20_96" x1="33.4358" y1="73.9555" x2="81.9395" y2="72.9168" gradientUnits="userSpaceOnUse">
<stop stop-color="#68ACA2"/>
<stop offset="1" stop-color="#4A9287"/>
</linearGradient>
<linearGradient id="paint2_linear_20_96" x1="46.4643" y1="69.7586" x2="26.8946" y2="90.186" gradientUnits="userSpaceOnUse">
<stop offset="0.00515464" stop-color="#18304F"/>
<stop offset="1" stop-color="#2F6BAF"/>
</linearGradient>
<linearGradient id="paint3_linear_20_96" x1="73.3634" y1="17.6946" x2="74.4021" y2="66.1973" gradientUnits="userSpaceOnUse">
<stop stop-color="#68ACA2"/>
<stop offset="1" stop-color="#4A9287"/>
</linearGradient>
<linearGradient id="paint4_linear_20_96" x1="26.4853" y1="33.0933" x2="27.524" y2="81.5973" gradientUnits="userSpaceOnUse">
<stop stop-color="#68ACA2"/>
<stop offset="1" stop-color="#4A9287"/>
</linearGradient>
</defs>
</svg>
